<?xml version="1.0" encoding="iso-8859-1"?>
<!-- Generator: Adobe Illustrator 19.0.0, SVG Export Plug-In . SVG Version: 6.00 Build 0)  -->
<svg version="1.1" id="Capa_1" xmlns="http://www.w3.org/2000/svg" xmlns:xlink="http://www.w3.org/1999/xlink" x="0px" y="0px"
	 viewBox="0 0 512 512" style="enable-background:new 0 0 512 512;" xml:space="preserve">
<rect x="38.33" y="27.664" style="fill:#FFD699;" width="435.33" height="456.67"/>
<rect x="256" y="27.664" style="fill:#FFC061;" width="217.67" height="456.67"/>
<rect x="38.33" y="27.664" style="fill:#91653A;" width="435.33" height="86.66"/>
<rect x="256" y="27.664" style="fill:#56412D;" width="217.67" height="86.66"/>
<rect x="312.17" y="312.466" style="fill:#91653A;" width="104.67" height="171.87"/>
<rect x="364.94" y="312.466" style="fill:#56412D;" width="51.889" height="171.87"/>
<rect x="53.33" y="327.466" style="fill:#BDE6F9;" width="170.67" height="77.867"/>
<rect x="123.674" y="315.197" transform="matrix(-0.7071 -0.7071 0.7071 -0.7071 -23.4774 726.258)" style="fill:#FFFFFF;" width="30" height="105.589"/>
<path style="fill:#91653A;" d="M239,420.329H38.333V312.464H239V420.329z M68.333,390.329H209v-47.867H68.333V390.329z"/>
<polygon style="fill:#FD667B;" points="473.667,86.947 39.333,86.947 0,184.068 0,190.512 512,190.512 512,184.068 "/>
<polygon style="fill:#FC0023;" points="473.667,86.947 254.479,86.947 254.479,190.512 512,190.512 512,184.068 "/>
<polygon style="fill:#FFFFFF;" points="181.171,86.947 159.533,190.512 352.467,190.512 330.829,86.947 "/>
<polygon style="fill:#FFF1AB;" points="256,190.512 352.467,190.512 330.829,86.947 256,86.947 "/>
<path style="fill:#FC0023;" d="M51.2,247.331L51.2,247.331c-28.277,0-51.2-22.923-51.2-51.2v-11.853h102.4v11.853
	C102.4,224.408,79.477,247.331,51.2,247.331z"/>
<path style="fill:#FFF1AB;" d="M153.6,247.331L153.6,247.331c-28.277,0-51.2-22.923-51.2-51.2v-11.853h102.4v11.853
	C204.8,224.408,181.877,247.331,153.6,247.331z"/>
<path style="fill:#FD5D73;" d="M256,247.331L256,247.331c-28.277,0-51.2-22.923-51.2-51.2v-11.853h102.4v11.853
	C307.2,224.408,284.277,247.331,256,247.331z"/>
<path style="fill:#FFFFFF;" d="M358.4,247.331L358.4,247.331c-28.277,0-51.2-22.923-51.2-51.2v-11.853h102.4v11.853
	C409.6,224.408,386.677,247.331,358.4,247.331z"/>
<path style="fill:#FD667B;" d="M460.8,247.331L460.8,247.331c-28.277,0-51.2-22.923-51.2-51.2v-11.853H512v11.853
	C512,224.408,489.077,247.331,460.8,247.331z"/>
<path style="fill:#FC0023;" d="M255.921,184.278v63.051c0.027,0,0.053,0.002,0.079,0.002c28.277,0,51.2-22.923,51.2-51.2v-11.853
	H255.921z"/>
<g>
</g>
<g>
</g>
<g>
</g>
<g>
</g>
<g>
</g>
<g>
</g>
<g>
</g>
<g>
</g>
<g>
</g>
<g>
</g>
<g>
</g>
<g>
</g>
<g>
</g>
<g>
</g>
<g>
</g>
</svg>
