<?xml version="1.0" encoding="iso-8859-1"?>
<!-- Generator: Adobe Illustrator 19.0.0, SVG Export Plug-In . SVG Version: 6.00 Build 0)  -->
<svg version="1.1" id="Capa_1" xmlns="http://www.w3.org/2000/svg" xmlns:xlink="http://www.w3.org/1999/xlink" x="0px" y="0px"
	 viewBox="0 0 512.015 512.015" style="enable-background:new 0 0 512.015 512.015;" xml:space="preserve">
<path style="fill:#4CAF50;" d="M453.248,16.076c-21.691-20.713-55.834-20.713-77.525,0l-31.275,31.253
	c-1.994,1.999-3.114,4.707-3.115,7.531v62.485c0,5.891,4.776,10.667,10.667,10.667h62.485c2.831,0.005,5.548-1.115,7.552-3.115
	l31.253-31.253c21.414-21.392,21.432-56.093,0.04-77.506c-0.013-0.013-0.027-0.027-0.04-0.04L453.248,16.076z"/>
<path style="fill:#009688;" d="M352,0.012h-85.333C260.776,0.012,256,4.787,256,10.678v85.333c0.001,4.896,3.335,9.162,8.085,10.347
	l85.333,21.333c0.844,0.214,1.711,0.322,2.581,0.32c5.891,0,10.667-4.776,10.667-10.667V10.678
	C362.667,4.787,357.891,0.012,352,0.012z"/>
<path style="fill:#2196F3;" d="M295.552,109.793L188.885,3.126c-4.165-4.164-10.917-4.164-15.083,0l-64,64
	c-4.164,4.165-4.164,10.917,0,15.083l42.667,42.667c1.996,2.002,4.704,3.13,7.531,3.136h128c5.891,0.011,10.675-4.757,10.686-10.648
	C298.691,114.524,297.563,111.799,295.552,109.793z"/>
<path style="fill:#FFC107;" d="M509.739,110.774c-2.022-2.586-5.122-4.097-8.405-4.096H96c-5.891-0.001-10.668,4.773-10.669,10.664
	c0,0.717,0.072,1.433,0.216,2.136l42.667,213.333c1.079,5.531,6.274,9.269,11.861,8.533l320-42.667c4.339-0.58,7.883-3.752,8.939-8
	l42.667-170.667C512.505,116.798,511.787,113.384,509.739,110.774z"/>
<g>
	<circle style="fill:#455A64;" cx="394.667" cy="458.678" r="53.333"/>
	<circle style="fill:#455A64;" cx="181.333" cy="458.678" r="53.333"/>
	<path style="fill:#455A64;" d="M191.125,384.012h246.208c5.891,0,10.667-4.776,10.667-10.667c0-5.891-4.776-10.667-10.667-10.667
		H191.125c-25.408-0.053-47.272-17.976-52.309-42.88L85.12,51.212c-1.014-4.967-5.384-8.534-10.453-8.533h-64
		C4.776,42.678,0,47.454,0,53.345s4.776,10.667,10.667,10.667H65.92l51.989,259.968
		C124.954,358.843,155.557,383.936,191.125,384.012z"/>
</g>
<g>
</g>
<g>
</g>
<g>
</g>
<g>
</g>
<g>
</g>
<g>
</g>
<g>
</g>
<g>
</g>
<g>
</g>
<g>
</g>
<g>
</g>
<g>
</g>
<g>
</g>
<g>
</g>
<g>
</g>
</svg>
